<svg xmlns="http://www.w3.org/2000/svg" width="135" height="44" fill="none" viewBox="0 0 135 44">
  <path fill="#fff" d="M11.264 29V14.454h3.949v11.364h5.88V29h-9.83Zm16.71.199c-1.165 0-2.169-.223-3.012-.668a4.677 4.677 0 0 1-1.939-1.932c-.45-.842-.674-1.85-.674-3.025 0-1.127.227-2.112.681-2.955a4.872 4.872 0 0 1 1.925-1.967c.829-.469 1.806-.703 2.933-.703.824 0 1.57.128 2.237.383a4.688 4.688 0 0 1 1.712 1.115c.474.483.838 1.07 1.094 1.762.256.691.384 1.47.384 2.337v.909H23.57v-2.16h6.136a1.503 1.503 0 0 0-.241-.823 1.538 1.538 0 0 0-.618-.562 1.817 1.817 0 0 0-.873-.206 1.87 1.87 0 0 0-.874.206 1.65 1.65 0 0 0-.64.555 1.56 1.56 0 0 0-.248.83v2.33c0 .35.074.663.22.938a1.6 1.6 0 0 0 .633.646c.274.156.605.234.994.234.27 0 .516-.038.738-.114a1.66 1.66 0 0 0 .583-.326c.16-.147.28-.322.355-.526h3.58a4.078 4.078 0 0 1-.874 1.975c-.46.554-1.068.985-1.825 1.292-.753.303-1.634.455-2.642.455Zm10.86-6.335V29h-3.92V14.454h3.779v5.71h.113c.247-.695.656-1.237 1.229-1.626.573-.393 1.262-.59 2.067-.59.772 0 1.442.176 2.01.526a3.54 3.54 0 0 1 1.328 1.45c.317.615.473 1.32.469 2.116V29h-3.92v-6.136c.004-.54-.131-.964-.406-1.272-.27-.307-.655-.461-1.157-.461-.318 0-.597.07-.839.213a1.409 1.409 0 0 0-.553.596 2.114 2.114 0 0 0-.2.924ZM47.845 29V18.09h3.807v2.075h.113c.2-.767.514-1.328.945-1.683a2.344 2.344 0 0 1 1.527-.533c.17 0 .339.014.504.042.17.024.334.06.49.107v3.345a3.512 3.512 0 0 0-.717-.149 6.46 6.46 0 0 0-.732-.05c-.383 0-.729.088-1.036.263-.303.17-.543.412-.718.724-.175.308-.263.67-.263 1.087V29h-3.92Zm13.274.199c-1.165 0-2.169-.223-3.011-.668a4.677 4.677 0 0 1-1.94-1.932c-.449-.842-.674-1.85-.674-3.025 0-1.127.227-2.112.682-2.955a4.872 4.872 0 0 1 1.925-1.967c.828-.469 1.806-.703 2.933-.703.824 0 1.57.128 2.237.383a4.688 4.688 0 0 1 1.712 1.115 4.92 4.92 0 0 1 1.094 1.762c.255.691.383 1.47.383 2.337v.909h-9.744v-2.16h6.136a1.504 1.504 0 0 0-.241-.823 1.539 1.539 0 0 0-.618-.562 1.817 1.817 0 0 0-.874-.206c-.317 0-.608.07-.873.206a1.65 1.65 0 0 0-.64.555 1.56 1.56 0 0 0-.248.83v2.33c0 .35.073.663.22.938.147.274.357.49.632.646.275.156.606.234.994.234.27 0 .516-.038.739-.114a1.66 1.66 0 0 0 .582-.326 1.32 1.32 0 0 0 .355-.526h3.58a4.078 4.078 0 0 1-.874 1.975c-.459.554-1.067.985-1.825 1.292-.753.303-1.633.455-2.642.455Zm6.94-.199V18.09h3.808v2.075h.113c.2-.767.514-1.328.945-1.683a2.344 2.344 0 0 1 1.527-.533c.17 0 .338.014.504.042.17.024.334.06.49.107v3.345a3.512 3.512 0 0 0-.717-.149 6.459 6.459 0 0 0-.732-.05c-.383 0-.729.088-1.037.263-.303.17-.542.412-.717.724-.175.308-.263.67-.263 1.087V29h-3.92Zm11.593 0h-4.26l4.8-14.546h5.398L90.39 29h-4.26l-3.182-10.54h-.114L79.652 29Zm-.795-5.739h8.011v2.955h-8.011V23.26Zm16.884-8.806V29H91.79V14.454h3.949Z"/>
  <path stroke="#fff" stroke-linecap="round" stroke-linejoin="round" stroke-width="1.5" d="M107 12h14c1.886 0 2.828 0 3.414.586.586.586.586 1.528.586 3.414v6c0 1.886 0 2.828-.586 3.414-.586.586-1.528.586-3.414.586h-7m1-9.5h6M107 27v-4c0-.943 0-1.414.293-1.707.293-.293.764-.293 1.707-.293h2m-4 6h4m-4 0v5m4-11v6m0-6h6m-6 6v5"/>
  <path stroke="#fff" stroke-linecap="round" stroke-linejoin="round" stroke-width="1.5" d="M111 16.5a2 2 0 1 1-4.001 0 2 2 0 0 1 4.001 0Z"/>
</svg>
